<?xml version="1.0" standalone="no"?>
<!DOCTYPE svg PUBLIC "-//W3C//DTD SVG 20010904//EN"
 "http://www.w3.org/TR/2001/REC-SVG-20010904/DTD/svg10.dtd">
<svg version="1.0" xmlns="http://www.w3.org/2000/svg"
 width="3264.000000pt" height="3264.000000pt" viewBox="0 0 3264.000000 3264.000000"
 preserveAspectRatio="xMidYMid meet">
<metadata>
Created by potrace 1.14, written by Peter Selinger 2001-2017
</metadata>
<g transform="translate(0.000000,3264.000000) scale(0.100000,-0.100000)"
fill="#000000" stroke="none">
<path d="M14356 29083 c-3 -21 -6 -883 -6 -1916 0 -1275 -3 -1885 -10 -1898
-11 -19 -35 -19 -1255 -19 -1239 0 -1244 0 -1255 -20 -11 -21 4 -52 52 -105
53 -59 84 -96 126 -149 94 -118 196 -242 216 -261 12 -11 32 -36 46 -54 14
-19 83 -104 154 -190 70 -86 140 -171 155 -189 14 -18 39 -47 54 -65 16 -18
50 -58 75 -90 74 -93 171 -209 217 -261 11 -12 31 -37 45 -56 26 -35 182 -224
206 -250 21 -22 254 -309 293 -360 19 -25 42 -54 52 -65 10 -11 32 -36 49 -55
17 -19 39 -44 49 -55 10 -11 35 -42 56 -70 35 -47 86 -109 145 -176 14 -15 35
-41 47 -56 11 -15 122 -149 245 -298 123 -148 258 -313 300 -365 42 -52 89
-109 104 -126 16 -17 39 -44 52 -60 43 -56 194 -239 211 -256 9 -10 24 -28 33
-40 53 -71 90 -116 112 -138 14 -14 26 -31 26 -38 0 -7 4 -12 8 -12 8 0 92
-99 159 -187 20 -27 46 -58 57 -69 12 -12 34 -37 49 -55 15 -19 36 -43 46 -54
10 -11 35 -42 56 -70 49 -65 113 -145 139 -171 12 -12 32 -36 46 -54 14 -18
126 -154 250 -304 124 -149 268 -325 321 -391 53 -66 107 -131 120 -145 13
-14 32 -38 42 -53 25 -38 79 -38 104 1 10 15 23 32 30 37 10 9 147 172 206
247 12 16 35 43 50 60 47 55 52 61 108 129 30 36 65 81 79 99 23 31 36 46 100
122 39 46 60 71 225 273 86 105 166 201 179 215 13 14 72 86 131 160 60 74
115 142 124 151 27 27 106 121 114 135 7 13 304 375 331 404 15 17 166 200
199 243 26 33 62 77 97 118 29 34 44 52 151 184 45 55 91 110 103 122 11 12
29 33 38 45 10 13 88 109 174 213 86 105 168 205 183 223 14 19 35 43 47 55
11 12 69 83 129 157 60 74 128 158 151 185 24 28 104 124 179 215 74 91 147
179 161 195 28 34 22 26 131 160 107 129 123 149 153 185 14 16 36 43 50 60
14 17 36 43 50 60 14 16 54 65 89 110 36 44 69 80 73 80 4 0 8 7 8 15 0 8 11
22 25 31 14 9 25 21 25 27 0 6 9 20 20 32 17 17 224 267 309 373 25 32 62 76
99 117 55 61 102 125 102 137 0 38 16 38 -1267 38 l-1243 0 -10 26 c-6 16 -10
707 -10 1903 0 1033 -3 1893 -6 1910 l-6 31 -1933 0 -1932 0 -7 -37z"/>
<path d="M9780 22065 c-25 -13 -54 -24 -65 -25 -11 0 -36 -9 -56 -19 -20 -11
-56 -25 -80 -31 -24 -7 -61 -21 -81 -31 -20 -10 -45 -19 -55 -19 -10 0 -31 -7
-48 -16 -29 -16 -111 -46 -228 -84 -32 -10 -64 -23 -70 -28 -7 -6 -35 -17 -63
-25 -28 -8 -60 -20 -70 -26 -11 -6 -46 -20 -79 -32 -127 -44 -163 -58 -193
-73 -17 -9 -39 -16 -49 -16 -10 0 -40 -11 -68 -25 -27 -13 -57 -25 -65 -25 -8
0 -39 -11 -68 -25 -30 -14 -61 -25 -70 -25 -10 0 -39 -11 -67 -25 -27 -13 -57
-25 -65 -25 -9 0 -34 -9 -55 -20 -22 -12 -60 -26 -85 -32 -25 -6 -59 -19 -76
-29 -17 -11 -40 -19 -51 -19 -10 0 -37 -9 -58 -20 -22 -12 -60 -26 -85 -32
-25 -6 -54 -17 -65 -24 -11 -7 -42 -18 -70 -25 -27 -6 -57 -18 -65 -25 -8 -7
-37 -18 -65 -25 -27 -7 -63 -21 -80 -31 -16 -10 -39 -18 -50 -18 -11 0 -41
-11 -67 -25 -26 -14 -56 -25 -68 -25 -12 0 -42 -11 -68 -25 -26 -14 -56 -25
-67 -25 -11 0 -42 -12 -70 -25 -27 -14 -58 -25 -68 -25 -10 0 -39 -11 -65 -25
-26 -14 -56 -25 -67 -25 -11 0 -41 -11 -67 -25 -26 -14 -55 -25 -65 -25 -10 0
-40 -12 -68 -25 -27 -14 -58 -25 -68 -25 -10 0 -39 -11 -65 -25 -26 -14 -58
-25 -72 -25 -14 0 -39 -9 -56 -19 -17 -10 -46 -22 -65 -26 -19 -4 -47 -15 -64
-24 -16 -10 -50 -23 -75 -29 -25 -6 -63 -20 -85 -32 -21 -11 -48 -20 -60 -20
-11 0 -34 -9 -51 -19 -17 -10 -46 -22 -65 -26 -19 -4 -48 -15 -65 -25 -16 -9
-53 -23 -82 -29 -28 -7 -56 -19 -62 -26 -6 -8 -26 -17 -43 -21 -18 -3 -45 -17
-60 -30 -16 -13 -33 -24 -38 -24 -11 0 -73 -48 -124 -95 -62 -58 -185 -225
-185 -251 0 -5 -9 -25 -19 -45 -11 -19 -31 -83 -45 -141 l-26 -106 2 -5204 3
-5203 23 -90 c25 -92 98 -256 136 -302 89 -108 216 -221 286 -256 19 -9 42
-21 50 -27 8 -5 31 -16 50 -25 19 -8 42 -19 50 -24 8 -5 31 -16 50 -25 59 -28
94 -47 110 -57 8 -5 31 -16 50 -25 47 -20 72 -32 90 -43 15 -9 337 -170 408
-204 20 -10 44 -22 52 -27 8 -5 53 -28 100 -51 47 -23 184 -91 305 -152 121
-60 234 -116 250 -124 17 -8 39 -19 50 -25 11 -7 34 -18 50 -25 30 -14 48 -24
82 -43 10 -5 34 -16 53 -25 19 -8 42 -19 50 -25 8 -5 31 -16 50 -25 19 -8 42
-19 50 -25 8 -5 31 -17 50 -25 39 -18 83 -39 120 -59 14 -8 104 -53 200 -101
96 -47 182 -91 190 -96 8 -5 31 -16 50 -24 19 -9 42 -20 50 -25 8 -6 31 -17
50 -25 19 -9 42 -20 50 -25 8 -6 31 -17 50 -25 19 -9 42 -20 50 -25 8 -6 31
-17 50 -25 19 -9 42 -20 50 -25 8 -6 31 -17 50 -25 19 -9 42 -20 50 -25 8 -6
31 -17 50 -25 19 -9 42 -20 50 -25 8 -6 26 -15 40 -21 14 -6 36 -17 50 -25 14
-7 36 -18 50 -25 14 -6 36 -17 50 -25 14 -7 36 -18 50 -25 14 -6 36 -17 50
-25 14 -7 36 -18 50 -25 14 -6 36 -17 50 -24 30 -16 255 -127 290 -144 24 -11
43 -21 108 -56 15 -8 43 -22 62 -30 19 -9 42 -20 50 -25 8 -6 31 -17 50 -25
19 -9 42 -20 50 -25 8 -6 31 -17 50 -25 19 -9 42 -20 50 -25 8 -5 76 -39 150
-75 74 -37 142 -71 150 -76 8 -5 31 -16 50 -24 19 -9 42 -20 50 -25 8 -6 31
-17 50 -25 19 -9 42 -20 50 -25 8 -4 544 -273 1190 -595 646 -323 1182 -591
1190 -596 8 -4 105 -54 215 -109 110 -56 207 -105 215 -110 8 -5 31 -16 50
-25 19 -8 42 -19 50 -25 8 -5 31 -17 50 -25 19 -9 46 -21 59 -28 13 -7 281
-141 595 -298 314 -157 580 -290 591 -297 20 -11 565 -282 633 -315 20 -10 44
-22 52 -27 8 -5 49 -25 90 -45 41 -20 84 -41 95 -47 11 -6 34 -18 50 -25 17
-8 39 -19 50 -25 11 -7 34 -18 50 -25 17 -8 39 -19 50 -25 11 -7 34 -18 50
-25 17 -8 39 -19 50 -25 11 -7 34 -18 50 -25 17 -8 37 -19 45 -24 8 -5 31 -16
50 -25 19 -8 53 -23 75 -34 22 -10 70 -24 106 -29 37 -6 80 -18 95 -26 40 -21
189 -20 229 1 17 9 59 20 94 25 35 5 78 18 95 28 17 10 44 22 60 25 16 4 41
16 54 27 14 10 30 19 35 19 8 0 3605 1795 3687 1840 8 4 139 69 290 144 151
76 282 141 290 146 8 4 501 250 1095 545 594 295 1087 541 1095 546 8 5 31 16
50 24 19 9 42 20 50 25 8 6 31 17 50 25 19 9 42 20 50 25 8 5 796 399 1750
877 954 477 1737 871 1740 875 3 4 21 14 40 23 36 16 88 51 112 76 8 8 30 28
49 44 68 61 188 222 189 253 0 7 11 34 25 60 14 26 25 59 25 74 0 15 6 47 14
70 8 24 16 55 20 69 3 14 6 2362 6 5217 1 5128 1 5193 -19 5265 -10 39 -22 88
-25 108 -4 21 -13 42 -21 49 -7 6 -17 26 -21 43 -3 18 -17 45 -30 60 -13 16
-24 33 -24 39 0 38 -237 268 -276 268 -6 0 -19 9 -28 19 -10 11 -32 23 -50 27
-17 3 -38 12 -46 19 -8 7 -35 18 -60 25 -25 6 -54 18 -66 25 -12 8 -46 21 -77
30 -31 9 -59 20 -62 25 -3 4 -28 14 -57 21 -29 6 -66 20 -83 31 -16 10 -39 18
-50 18 -11 0 -40 11 -65 24 -25 13 -61 27 -80 31 -19 4 -51 16 -70 26 -19 11
-44 19 -55 19 -12 0 -39 9 -60 20 -22 12 -60 25 -85 31 -24 6 -52 16 -60 24
-8 8 -37 19 -62 24 -26 6 -62 20 -80 31 -18 11 -42 20 -53 20 -12 0 -39 9 -60
20 -22 12 -60 25 -85 31 -24 6 -52 16 -60 24 -8 8 -36 18 -60 24 -25 6 -63 19
-85 31 -21 11 -48 20 -60 20 -11 0 -42 12 -70 25 -27 14 -57 25 -65 25 -8 0
-37 11 -65 25 -27 13 -59 25 -70 25 -11 0 -42 12 -70 25 -27 14 -59 25 -70 25
-11 0 -33 8 -50 18 -16 10 -50 24 -74 31 -25 7 -54 19 -65 26 -12 7 -41 17
-66 23 -25 6 -63 20 -85 32 -21 11 -48 20 -60 20 -11 0 -42 12 -70 25 -27 14
-56 25 -64 25 -8 0 -32 9 -55 19 -23 11 -61 26 -86 34 -107 36 -166 58 -183
68 -10 5 -47 19 -82 30 -35 11 -67 23 -69 28 -3 5 -23 12 -43 16 -21 3 -56 15
-78 25 -22 10 -60 25 -85 33 -96 33 -167 59 -206 78 -22 10 -47 19 -55 19 -8
0 -36 11 -64 25 -27 13 -57 25 -67 25 -9 0 -40 11 -70 25 -29 14 -59 25 -67
25 -8 0 -33 8 -55 19 -23 10 -63 26 -91 36 -131 45 -182 64 -210 79 -60 32
-99 14 -111 -49 -3 -20 -10 -38 -15 -41 -5 -2 -18 -36 -29 -74 -11 -38 -25
-72 -29 -75 -5 -3 -15 -28 -22 -57 -6 -29 -20 -66 -31 -83 -10 -16 -18 -39
-18 -50 0 -12 -9 -39 -20 -60 -12 -22 -26 -60 -32 -85 -6 -25 -17 -54 -24 -65
-7 -11 -18 -40 -24 -64 -6 -24 -20 -60 -31 -80 -10 -20 -19 -45 -19 -56 0 -11
-11 -41 -25 -67 -14 -26 -25 -55 -25 -65 0 -10 -12 -40 -25 -68 -14 -27 -25
-58 -25 -68 0 -10 -11 -39 -25 -65 -14 -26 -25 -57 -25 -69 0 -12 -11 -43 -25
-69 -14 -26 -25 -55 -25 -66 0 -10 -11 -40 -24 -66 -27 -52 -42 -129 -32 -160
5 -14 26 -27 64 -40 144 -51 179 -64 207 -77 17 -7 50 -20 75 -28 25 -9 74
-27 110 -40 36 -14 88 -33 115 -43 28 -9 75 -28 106 -41 31 -12 63 -23 70 -23
8 0 37 -12 64 -25 28 -14 59 -25 70 -25 11 0 43 -12 70 -25 28 -14 57 -25 65
-25 8 0 38 -12 65 -25 28 -14 59 -25 70 -25 11 0 34 -8 50 -18 17 -10 50 -24
75 -30 25 -6 63 -20 85 -32 21 -11 47 -20 56 -20 9 0 41 -11 71 -25 29 -14 60
-25 68 -25 8 0 38 -12 65 -25 28 -14 59 -25 70 -25 11 0 43 -12 70 -25 28 -14
59 -25 71 -25 24 0 79 -54 70 -68 -3 -6 -21 -14 -39 -17 -17 -4 -45 -15 -62
-25 -16 -10 -50 -24 -75 -30 -25 -7 -52 -18 -60 -25 -8 -7 -35 -18 -59 -25
-24 -6 -54 -18 -65 -25 -12 -7 -41 -19 -66 -25 -25 -7 -52 -18 -60 -25 -8 -7
-31 -16 -50 -20 -19 -4 -48 -15 -65 -25 -16 -10 -50 -24 -75 -30 -25 -7 -52
-18 -61 -26 -8 -7 -31 -17 -50 -21 -19 -3 -54 -17 -78 -30 -24 -13 -50 -23
-58 -23 -8 0 -35 -11 -61 -25 -26 -14 -55 -25 -64 -25 -9 0 -38 -11 -64 -25
-26 -14 -53 -25 -60 -25 -7 0 -34 -11 -60 -25 -26 -14 -54 -25 -62 -25 -8 0
-29 -9 -46 -19 -17 -10 -47 -22 -66 -26 -19 -4 -49 -16 -66 -26 -17 -10 -38
-19 -46 -19 -8 0 -37 -11 -63 -25 -27 -13 -63 -27 -79 -31 -17 -3 -45 -15 -62
-25 -17 -10 -38 -19 -46 -19 -8 0 -36 -11 -62 -25 -26 -14 -53 -25 -60 -25 -7
0 -35 -11 -62 -25 -27 -14 -56 -25 -64 -25 -9 0 -34 -9 -55 -21 -22 -11 -58
-26 -80 -34 -41 -13 -127 -47 -180 -71 -64 -28 -162 -66 -204 -80 -24 -8 -49
-18 -55 -23 -6 -5 -37 -19 -68 -30 -32 -12 -84 -30 -115 -42 -32 -11 -62 -25
-68 -29 -5 -4 -35 -17 -65 -28 -30 -11 -86 -32 -125 -47 -38 -15 -90 -35 -115
-44 -25 -9 -59 -25 -77 -34 -18 -9 -38 -17 -45 -17 -8 0 -32 -9 -53 -21 -22
-11 -58 -27 -80 -34 -53 -18 -165 -63 -189 -76 -10 -6 -42 -19 -70 -29 -147
-53 -172 -63 -182 -71 -6 -5 -35 -18 -65 -28 -145 -52 -175 -64 -185 -72 -6
-5 -35 -18 -65 -28 -145 -52 -175 -64 -185 -72 -6 -5 -35 -18 -65 -28 -141
-50 -173 -63 -193 -76 -11 -7 -35 -16 -52 -19 -16 -4 -52 -18 -79 -31 -26 -14
-55 -25 -63 -25 -7 0 -26 -8 -40 -19 -15 -10 -43 -22 -62 -26 -19 -4 -49 -16
-66 -26 -17 -10 -38 -19 -46 -19 -8 0 -35 -11 -60 -24 -25 -13 -58 -27 -74
-30 -17 -4 -52 -18 -79 -31 -26 -14 -55 -25 -63 -25 -8 0 -29 -9 -46 -19 -17
-10 -46 -22 -65 -26 -19 -4 -48 -16 -65 -26 -17 -10 -38 -19 -47 -19 -9 0 -37
-11 -63 -25 -26 -14 -55 -25 -64 -25 -9 0 -38 -11 -64 -25 -26 -14 -53 -25
-61 -25 -8 0 -35 -11 -61 -25 -26 -14 -55 -25 -64 -25 -9 0 -38 -11 -64 -25
-26 -14 -53 -25 -61 -25 -8 0 -35 -11 -61 -25 -26 -14 -55 -25 -64 -25 -9 0
-38 -11 -64 -25 -26 -14 -53 -25 -60 -25 -7 0 -35 -11 -63 -25 -27 -13 -57
-25 -65 -25 -8 0 -28 -7 -45 -16 -16 -9 -54 -25 -84 -35 -30 -10 -59 -23 -65
-28 -6 -5 -31 -14 -56 -21 -25 -7 -52 -18 -60 -25 -8 -7 -28 -15 -45 -19 -16
-4 -53 -18 -80 -31 -28 -13 -64 -27 -80 -31 -17 -4 -37 -12 -45 -19 -8 -7 -35
-19 -60 -25 -25 -7 -56 -18 -70 -26 -33 -17 -146 -63 -190 -76 -19 -5 -46 -16
-60 -24 -27 -15 -103 -45 -189 -75 -30 -10 -59 -23 -65 -28 -6 -4 -47 -20 -91
-35 l-80 -27 -40 21 c-21 11 -46 20 -55 20 -9 0 -25 7 -38 15 -12 9 -45 24
-74 34 -85 30 -161 60 -188 75 -14 8 -41 19 -60 24 -39 12 -144 54 -206 83
-22 10 -46 19 -52 19 -7 0 -35 11 -62 25 -27 14 -55 25 -62 25 -7 0 -26 7 -43
16 -16 9 -54 25 -84 35 -30 10 -59 23 -65 27 -6 5 -31 14 -56 21 -25 7 -50 17
-56 22 -6 5 -35 18 -65 28 -30 10 -67 26 -84 35 -16 9 -37 16 -45 16 -8 0 -37
12 -65 25 -27 14 -57 25 -66 25 -9 0 -28 9 -42 20 -14 11 -40 23 -59 26 -18 4
-46 15 -63 24 -16 10 -50 24 -75 30 -25 7 -52 18 -60 25 -8 7 -31 16 -50 20
-19 4 -48 15 -65 25 -16 10 -50 24 -75 30 -25 7 -52 18 -61 26 -8 7 -31 17
-50 21 -19 3 -54 17 -78 30 -24 13 -51 23 -59 23 -8 0 -29 9 -46 19 -17 10
-47 22 -66 26 -19 4 -48 15 -65 25 -16 10 -46 21 -65 25 -19 4 -47 16 -62 26
-14 11 -35 19 -46 19 -10 0 -39 11 -64 24 -25 13 -60 27 -79 31 -19 4 -41 14
-50 22 -10 8 -40 20 -67 28 -28 7 -61 20 -73 29 -13 9 -31 16 -40 16 -9 0 -36
11 -61 24 -25 13 -60 27 -79 31 -19 4 -48 16 -65 26 -17 10 -38 19 -46 19 -7
0 -32 9 -53 20 -22 11 -61 27 -88 35 -26 8 -57 21 -69 29 -12 9 -29 16 -38 16
-9 0 -34 9 -55 20 -22 11 -61 27 -88 35 -26 8 -57 21 -69 29 -12 9 -30 16 -39
16 -9 0 -37 11 -63 25 -26 14 -53 25 -59 25 -7 0 -31 9 -52 20 -38 20 -81 37
-204 81 -30 10 -59 23 -65 28 -10 8 -38 19 -184 71 -29 11 -62 26 -74 35 -13
8 -29 15 -37 15 -8 0 -33 9 -56 20 -22 11 -61 26 -85 34 -25 8 -83 31 -130 51
-47 20 -105 43 -129 51 -24 8 -49 18 -55 23 -6 5 -37 19 -68 30 -32 12 -84 30
-115 42 -32 11 -62 25 -68 29 -5 4 -36 18 -67 29 -32 12 -84 30 -115 42 -32
11 -62 25 -68 29 -5 4 -36 18 -67 29 -32 12 -83 30 -114 41 -31 12 -66 27 -78
35 -11 7 -35 16 -52 19 -16 4 -52 18 -79 31 -26 14 -53 25 -59 25 -6 0 -33 11
-60 25 -27 14 -57 25 -65 25 -9 0 -25 6 -36 14 -11 8 -43 21 -70 29 -28 9 -68
25 -90 36 -21 12 -47 21 -56 21 -9 0 -22 6 -28 14 -6 8 -33 19 -59 26 -26 6
-60 20 -77 29 -16 10 -45 21 -64 25 -19 3 -42 13 -50 20 -9 8 -36 19 -61 26
-25 6 -58 20 -75 30 -16 10 -45 21 -64 25 -19 4 -48 16 -65 26 -17 10 -38 19
-47 19 -9 0 -37 11 -63 25 -26 14 -55 25 -64 25 -9 0 -38 11 -64 25 -26 14
-53 25 -61 25 -8 0 -34 10 -58 23 -24 13 -59 27 -78 30 -19 4 -42 14 -50 21
-9 8 -36 19 -60 26 -24 6 -55 18 -67 27 -13 8 -43 19 -66 25 -24 5 -50 15 -58
23 -8 7 -35 18 -59 25 -24 6 -54 18 -65 25 -12 8 -42 19 -69 26 -26 6 -50 16
-53 21 -12 19 46 66 90 72 23 4 55 15 71 26 17 11 39 20 50 20 12 0 39 9 60
20 22 12 60 26 85 32 25 6 61 19 80 30 19 10 42 18 50 18 9 0 34 9 55 20 22
12 60 26 85 32 25 6 61 19 80 30 19 10 42 18 50 18 8 0 38 11 65 25 28 13 59
25 70 25 11 0 43 11 70 25 28 13 56 25 64 25 8 0 33 9 55 19 40 19 112 46 206
77 25 9 53 20 64 26 10 5 48 20 85 33 36 12 95 34 131 48 154 59 208 79 255
94 28 8 58 22 68 31 24 21 21 71 -8 134 -14 29 -25 59 -25 67 0 8 -9 33 -19
55 -20 42 -48 117 -81 219 -10 32 -23 64 -28 70 -5 7 -17 35 -25 62 -9 28 -28
82 -43 120 -14 39 -37 100 -50 137 -12 36 -30 80 -38 97 -9 16 -16 38 -16 48
0 10 -7 32 -16 48 -9 17 -25 55 -35 85 -36 110 -61 176 -80 216 -10 22 -19 46
-19 54 0 7 -11 36 -24 64 -13 28 -27 68 -31 90 -6 31 -14 41 -41 52 -40 17
-30 18 -84 -11z m-2774 -3604 c5 -5 35 -19 67 -30 150 -55 172 -63 191 -77 11
-8 27 -14 36 -14 9 0 34 -9 55 -20 22 -11 60 -27 85 -35 25 -7 63 -23 85 -34
21 -12 46 -21 53 -21 8 0 29 -9 46 -19 17 -10 47 -22 66 -26 19 -4 49 -15 65
-25 17 -10 46 -21 65 -25 19 -4 42 -14 51 -22 10 -8 40 -20 67 -28 28 -7 61
-20 73 -29 13 -9 31 -16 40 -16 9 0 36 -11 61 -24 25 -13 60 -27 78 -31 18 -4
53 -18 78 -31 25 -13 52 -24 60 -24 8 0 29 -9 46 -19 17 -10 46 -22 65 -26 19
-4 48 -16 65 -26 17 -10 40 -19 51 -19 11 0 38 -11 60 -25 22 -13 49 -25 60
-25 11 0 34 -9 52 -19 17 -11 50 -25 73 -31 23 -6 56 -20 73 -31 18 -10 39
-19 47 -19 8 0 36 -11 62 -25 26 -14 54 -25 63 -25 9 0 38 -11 65 -25 27 -14
56 -25 63 -25 8 0 34 -10 58 -23 24 -13 59 -27 78 -30 19 -4 42 -13 50 -20 9
-8 36 -19 61 -26 25 -7 54 -19 66 -26 11 -7 41 -19 65 -25 24 -7 51 -18 59
-25 8 -7 35 -18 59 -25 24 -6 54 -18 65 -25 12 -7 41 -19 66 -25 25 -7 52 -18
60 -25 8 -7 35 -18 60 -25 25 -6 54 -18 66 -25 11 -7 41 -19 65 -25 24 -7 51
-18 59 -25 8 -7 35 -18 59 -25 24 -6 60 -20 80 -31 20 -10 42 -19 49 -19 7 0
35 -11 62 -25 27 -14 55 -25 62 -25 7 0 36 -12 63 -25 28 -14 56 -25 63 -25 7
0 35 -11 62 -25 27 -14 55 -25 62 -25 7 0 36 -12 63 -25 28 -14 56 -25 63 -25
7 0 35 -11 62 -25 27 -14 55 -25 62 -25 7 0 34 -11 60 -25 26 -14 53 -25 60
-25 7 0 36 -11 63 -25 28 -13 56 -25 64 -25 7 0 35 -11 63 -25 27 -14 55 -25
61 -25 7 0 35 -11 62 -25 28 -13 56 -25 63 -25 7 0 34 -11 60 -25 26 -14 54
-25 62 -25 8 0 31 -8 50 -19 19 -10 53 -24 75 -31 22 -7 51 -19 65 -26 26 -14
99 -43 185 -74 28 -10 64 -25 80 -34 17 -9 37 -16 45 -16 8 0 36 -11 62 -25
26 -14 53 -25 60 -25 7 0 36 -11 63 -25 28 -13 57 -25 65 -25 8 0 36 -11 62
-25 26 -14 53 -25 61 -25 8 0 34 -11 59 -24 25 -13 60 -27 78 -31 18 -4 47
-16 64 -26 17 -10 40 -19 51 -19 11 0 34 -9 52 -19 17 -11 50 -25 73 -31 23
-6 56 -20 73 -31 18 -10 41 -19 52 -19 11 0 34 -9 52 -19 17 -11 50 -25 73
-31 23 -6 56 -20 73 -31 18 -10 40 -19 50 -19 10 0 37 -11 60 -24 23 -13 58
-27 78 -30 21 -4 42 -13 49 -21 7 -8 28 -17 49 -21 20 -4 52 -15 71 -25 19
-10 51 -23 71 -29 20 -6 53 -19 74 -30 22 -11 46 -20 55 -20 8 0 30 -9 48 -20
18 -11 38 -20 45 -20 6 0 39 -14 72 -30 33 -16 67 -30 75 -30 8 0 29 -8 45
-18 17 -10 43 -22 60 -26 16 -4 52 -18 81 -32 28 -13 57 -24 65 -24 8 0 28 -9
45 -19 17 -10 46 -22 64 -26 18 -4 53 -18 78 -31 25 -13 52 -24 61 -24 9 0 25
-6 36 -14 11 -7 43 -21 71 -30 28 -9 68 -25 90 -36 21 -11 44 -20 50 -20 7 0
35 -11 62 -25 28 -14 56 -25 63 -25 8 0 37 -12 64 -25 28 -14 57 -25 65 -25 9
0 24 -6 35 -14 11 -7 45 -21 75 -31 30 -10 60 -22 66 -26 6 -5 35 -18 65 -28
194 -68 255 -102 263 -144 3 -16 6 -2083 6 -4594 l0 -4564 -22 -8 c-16 -6 -29
-5 -43 5 -11 8 -27 17 -35 21 -45 19 -77 34 -90 43 -8 5 -31 16 -50 25 -19 8
-42 19 -50 25 -8 5 -31 16 -50 25 -19 8 -42 19 -50 25 -8 5 -31 16 -50 25 -19
8 -42 19 -50 25 -8 5 -31 16 -50 25 -19 8 -42 19 -50 24 -8 5 -28 16 -45 24
-16 7 -39 18 -50 25 -11 6 -33 17 -50 25 -16 7 -39 19 -50 25 -11 6 -36 18
-55 27 -19 8 -42 19 -50 25 -8 5 -31 16 -50 25 -19 8 -42 19 -50 25 -8 5 -31
16 -50 25 -19 8 -42 19 -50 25 -8 5 -31 16 -50 25 -19 8 -42 19 -50 25 -8 5
-31 16 -50 25 -19 8 -42 19 -50 25 -8 5 -31 16 -50 25 -19 8 -69 33 -110 55
-41 22 -80 40 -86 40 -6 0 -22 8 -35 18 -13 11 -39 24 -58 31 -19 6 -42 17
-50 25 -9 7 -33 19 -53 25 -20 7 -42 18 -48 26 -6 7 -24 17 -40 20 -16 3 -34
13 -40 20 -6 8 -28 19 -48 26 -20 6 -44 18 -53 25 -8 8 -31 19 -50 25 -19 7
-43 20 -54 29 -11 10 -34 21 -51 24 -18 4 -39 15 -49 26 -9 10 -31 21 -50 24
-18 4 -38 13 -45 21 -6 8 -28 19 -48 26 -20 7 -47 20 -60 30 -13 10 -36 20
-52 24 -16 3 -34 13 -40 20 -6 8 -28 19 -48 26 -20 7 -47 20 -60 30 -13 10
-36 20 -52 24 -16 3 -34 13 -40 20 -6 8 -28 19 -48 26 -20 7 -47 20 -60 30
-13 10 -36 20 -52 24 -16 3 -34 13 -40 20 -6 8 -28 19 -48 26 -20 7 -47 20
-60 30 -13 10 -36 20 -52 24 -16 3 -34 13 -40 20 -6 8 -28 19 -48 26 -20 7
-47 20 -60 30 -13 10 -36 20 -52 24 -16 3 -34 13 -40 20 -6 8 -28 19 -48 26
-20 6 -42 16 -49 21 -6 5 -481 245 -1055 532 -574 287 -1052 527 -1063 533
-63 35 -353 173 -362 173 -6 0 -16 7 -23 14 -6 8 -28 20 -48 27 -20 7 -39 15
-42 20 -3 4 -26 17 -50 28 -25 12 -52 25 -60 31 -8 5 -31 16 -50 25 -19 8 -42
19 -50 24 -8 5 -53 28 -100 51 -47 22 -92 45 -100 50 -8 5 -53 27 -100 50 -47
22 -92 45 -100 50 -8 5 -31 16 -50 25 -19 8 -42 19 -50 24 -8 5 -28 16 -45 24
-16 8 -61 30 -100 49 -38 20 -153 77 -255 127 -102 51 -192 96 -200 101 -8 5
-33 17 -55 28 -22 10 -211 105 -421 210 -210 106 -386 192 -391 192 -6 0 -16
7 -23 14 -6 8 -28 20 -48 27 -20 6 -44 18 -53 25 -8 8 -31 19 -50 25 -19 7
-44 20 -57 30 -13 10 -36 20 -52 24 -20 4 -32 15 -40 38 -14 43 -13 8295 2
8338 10 31 18 35 34 20z m18614 -17 c7 -16 10 -1503 10 -4174 0 -2671 -3
-4158 -10 -4174 -5 -14 -16 -26 -23 -26 -8 0 -30 -11 -49 -24 -20 -13 -53 -29
-74 -36 -22 -7 -46 -18 -54 -24 -8 -7 -366 -187 -795 -400 -429 -213 -787
-392 -795 -397 -8 -5 -53 -27 -100 -50 -47 -22 -92 -45 -100 -50 -8 -4 -53
-27 -100 -50 -47 -22 -92 -45 -100 -50 -8 -5 -31 -16 -50 -24 -19 -9 -42 -20
-50 -25 -15 -9 -132 -67 -180 -89 -14 -6 -37 -18 -52 -26 -47 -25 -78 -41
-223 -115 -77 -39 -147 -75 -155 -80 -8 -5 -31 -16 -50 -25 -19 -8 -42 -19
-50 -25 -8 -5 -31 -16 -50 -25 -19 -8 -42 -19 -50 -25 -8 -5 -31 -16 -50 -25
-19 -8 -42 -19 -50 -25 -8 -5 -31 -16 -50 -25 -19 -8 -42 -19 -50 -25 -8 -5
-31 -16 -50 -25 -19 -8 -42 -19 -50 -25 -8 -5 -31 -16 -50 -25 -19 -8 -42 -19
-50 -25 -8 -5 -31 -16 -50 -25 -19 -8 -42 -19 -50 -24 -8 -5 -257 -130 -553
-277 -296 -147 -540 -271 -542 -275 -3 -4 -18 -10 -35 -14 -16 -3 -39 -14 -52
-24 -13 -10 -40 -23 -60 -30 -20 -7 -42 -18 -48 -26 -6 -7 -24 -17 -40 -20
-16 -4 -39 -14 -52 -24 -13 -10 -40 -23 -60 -30 -20 -7 -42 -18 -48 -26 -6 -7
-24 -17 -40 -20 -16 -4 -39 -14 -52 -24 -13 -10 -40 -23 -60 -30 -20 -7 -42
-18 -48 -26 -6 -7 -24 -17 -40 -20 -16 -4 -39 -14 -52 -24 -13 -10 -40 -23
-60 -30 -20 -7 -42 -18 -48 -26 -6 -7 -24 -17 -40 -20 -16 -4 -39 -14 -52 -24
-13 -10 -40 -23 -60 -30 -20 -7 -42 -18 -48 -26 -6 -7 -26 -17 -43 -20 -18 -4
-41 -15 -52 -25 -11 -9 -35 -22 -54 -29 -19 -6 -42 -17 -50 -25 -9 -7 -33 -19
-53 -25 -20 -7 -42 -18 -48 -26 -6 -7 -24 -17 -40 -20 -16 -4 -39 -14 -52 -24
-13 -10 -40 -23 -60 -30 -20 -7 -42 -18 -48 -26 -6 -7 -24 -17 -40 -20 -16 -4
-39 -14 -52 -24 -13 -10 -40 -23 -60 -30 -20 -7 -42 -19 -48 -27 -7 -7 -20
-14 -30 -14 -9 0 -33 -11 -53 -24 -19 -13 -48 -27 -65 -31 -16 -3 -38 -15 -48
-26 -9 -10 -25 -19 -34 -19 -10 0 -34 -11 -54 -25 -20 -14 -43 -25 -50 -25 -7
0 -30 -11 -50 -25 -20 -14 -43 -25 -50 -25 -7 0 -30 -11 -50 -25 -20 -14 -40
-25 -44 -25 -6 0 -1040 -516 -1082 -540 -8 -5 -53 -27 -100 -50 -47 -22 -92
-45 -100 -49 -8 -5 -31 -16 -50 -25 -19 -9 -42 -20 -50 -24 -66 -38 -129 -64
-146 -60 -19 3 -19 57 -22 4585 -1 2701 2 4591 7 4605 5 14 23 29 42 35 19 6
68 26 109 43 76 33 159 65 260 102 30 11 60 24 66 29 6 5 31 15 55 23 24 8 82
31 129 51 47 20 101 41 120 47 19 6 46 16 60 24 27 15 103 45 189 75 30 10 59
23 65 28 6 4 29 14 51 21 22 6 62 23 89 36 28 13 57 24 66 24 8 0 24 6 35 14
11 7 38 19 60 26 22 7 54 20 70 30 17 10 46 21 65 25 19 4 42 13 50 20 8 7 38
20 67 28 28 9 62 22 75 30 12 8 39 18 58 22 19 4 42 13 50 20 8 7 39 20 68 29
28 8 62 22 74 30 12 9 32 16 43 16 11 0 41 11 67 25 26 14 53 25 61 25 8 0 35
11 61 25 26 14 55 25 64 25 9 0 31 9 49 19 17 11 50 25 73 31 23 6 56 20 73
31 18 10 41 19 52 19 11 0 34 9 52 19 17 11 50 25 73 31 23 6 56 20 73 31 18
10 41 19 52 19 11 0 34 8 50 18 17 10 43 22 60 26 16 4 52 18 81 32 28 13 56
24 63 24 7 0 33 11 59 25 26 14 54 25 62 25 8 0 38 12 65 25 28 14 56 25 63
25 7 0 34 11 60 25 26 14 54 25 62 25 8 0 38 12 65 25 28 14 57 25 65 25 8 0
29 7 45 16 17 9 53 24 80 34 28 10 64 25 80 34 17 9 35 16 42 16 7 0 33 11 59
25 26 14 54 25 63 25 9 0 39 12 66 25 28 14 56 25 63 25 7 0 35 11 62 25 27
14 55 25 62 25 7 0 36 12 63 25 28 14 57 25 65 25 8 0 29 9 47 19 17 11 50 25
73 31 23 6 56 20 73 31 18 10 40 19 50 19 10 0 39 11 65 25 26 14 53 25 60 25
7 0 35 11 62 25 27 14 55 25 62 25 7 0 36 11 63 25 28 13 56 25 63 25 7 0 35
11 62 25 27 14 55 25 62 25 7 0 36 11 63 25 28 13 57 25 65 25 8 0 38 12 65
25 28 14 57 25 65 25 8 0 36 11 62 25 26 14 53 25 60 25 7 0 36 11 63 25 28
13 57 25 65 25 8 0 29 8 45 19 17 10 48 24 70 31 22 7 56 21 75 31 19 11 41
19 48 19 7 0 35 11 62 25 27 14 55 25 62 25 7 0 36 12 63 25 28 14 56 25 63
25 7 0 35 11 62 25 27 14 57 25 66 25 9 0 31 9 48 19 17 11 51 25 76 31 25 7
52 18 61 26 8 7 31 17 50 20 19 4 52 17 74 29 22 13 56 26 76 29 21 4 42 13
49 21 7 8 28 17 49 21 20 4 54 17 76 29 22 13 56 26 76 29 21 4 42 13 49 21 7
8 28 17 49 21 20 4 52 15 71 25 19 10 54 23 76 29 23 5 47 17 54 25 7 8 22 15
35 15 12 0 44 11 71 25 27 14 54 25 60 25 6 0 33 11 59 25 27 13 62 27 79 31
16 3 49 17 74 30 25 13 52 24 61 24 9 0 30 9 47 19 17 10 46 22 65 26 19 4 45
14 57 22 13 8 47 23 75 33 123 44 164 60 202 80 21 11 46 20 55 20 8 0 29 9
46 19 17 10 46 22 64 26 18 4 53 18 78 31 25 13 52 24 61 24 9 0 30 8 46 18
17 10 49 23 72 30 23 7 45 17 48 22 11 17 25 11 35 -16z"/>
</g>
</svg>
